<?xml version="1.0" encoding="UTF-8" standalone="no"?>
<!-- Created with Inkscape (http://www.inkscape.org/) -->

<svg
   version="1.1"
   id="svg1"
   width="631"
   height="502"
   viewBox="0 0 631 502"
   xmlns:xlink="http://www.w3.org/1999/xlink"
   xmlns="http://www.w3.org/2000/svg"
   xmlns:svg="http://www.w3.org/2000/svg">
  <defs
     id="defs1">
    <linearGradient
       id="linearGradient28">
      <stop
         style="stop-color:#0b3f1c;stop-opacity:1;"
         offset="0"
         id="stop29" />
      <stop
         style="stop-color:#1f8f3a;stop-opacity:1;"
         offset="0.48555762"
         id="stop31" />
      <stop
         style="stop-color:#d9ffe0;stop-opacity:1;"
         offset="0.92374939"
         id="stop32" />
      <stop
         style="stop-color:#1f8f3a;stop-opacity:1;"
         offset="0.92374939"
         id="stop33" />
      <stop
         style="stop-color:#0b3f1c;stop-opacity:1;"
         offset="1"
         id="stop30" />
    </linearGradient>
    <linearGradient
       id="linearGradient24">
      <stop
         style="stop-color:#0b3f1c;stop-opacity:1;"
         offset="0"
         id="stop24" />
      <stop
         style="stop-color:#1f8f3a;stop-opacity:1;"
         offset="0.17421696"
         id="stop26" />
      <stop
         style="stop-color:#d9ffe0;stop-opacity:1;"
         offset="0.32823935"
         id="stop27" />
      <stop
         style="stop-color:#1f8f3a;stop-opacity:1;"
         offset="0.47380853"
         id="stop28" />
      <stop
         style="stop-color:#0b3f1c;stop-opacity:1;"
         offset="1"
         id="stop25" />
    </linearGradient>
    <linearGradient
       id="linearGradient16">
      <stop
         style="stop-color:#0b3f1c;stop-opacity:1;"
         offset="0"
         id="stop17" />
      <stop
         style="stop-color:#1f8f3a;stop-opacity:1;"
         offset="0.16347229"
         id="stop19" />
      <stop
         style="stop-color:#d9ffe0;stop-opacity:1;"
         offset="0.29625145"
         id="stop20" />
      <stop
         style="stop-color:#1f8f3a;stop-opacity:1;"
         offset="0.42727247"
         id="stop21" />
      <stop
         style="stop-color:#0b3f1c;stop-opacity:1;"
         offset="1"
         id="stop18" />
    </linearGradient>
    <linearGradient
       id="linearGradient11">
      <stop
         style="stop-color:#0b3f1c;stop-opacity:1;"
         offset="0"
         id="stop11" />
      <stop
         style="stop-color:#1f8f3a;stop-opacity:1;"
         offset="0.64718634"
         id="stop14" />
      <stop
         style="stop-color:#d9ffe0;stop-opacity:1;"
         offset="0.77022535"
         id="stop15" />
      <stop
         style="stop-color:#1f8f3a;stop-opacity:1;"
         offset="0.89261526"
         id="stop16" />
      <stop
         style="stop-color:#0b3f1c;stop-opacity:1;"
         offset="0.99989998"
         id="stop13" />
    </linearGradient>
    <linearGradient
       xlink:href="#linearGradient11"
       id="linearGradient12"
       x1="577.26892"
       y1="98.907021"
       x2="46.032223"
       y2="360.17096"
       gradientUnits="userSpaceOnUse" />
    <linearGradient
       xlink:href="#linearGradient16"
       id="linearGradient18"
       x1="38.265629"
       y1="407.28033"
       x2="540.6676"
       y2="169.03249"
       gradientUnits="userSpaceOnUse" />
    <linearGradient
       xlink:href="#linearGradient24"
       id="linearGradient25"
       x1="42.475689"
       y1="394.40524"
       x2="495.90659"
       y2="214.63078"
       gradientUnits="userSpaceOnUse" />
    <linearGradient
       xlink:href="#linearGradient28"
       id="linearGradient30"
       x1="541.19623"
       y1="197.94693"
       x2="321.57379"
       y2="222.82919"
       gradientUnits="userSpaceOnUse" />
  </defs>
  <path
     style="fill:#000000"
     d="m 524,144.35216 c -20.04493,-3.01053 -32.13933,-7.41204 -40.72741,-14.8219 -8.76167,-7.55963 -7.88611,-16.77629 2.31142,-24.33137 21.69135,-16.070547 73.62133,-18.937791 101.91599,-5.627151 17.14771,8.066791 21.67027,17.699631 12.87864,27.430911 -9.79562,10.84258 -34.6269,18.12652 -60.87864,17.85797 -7.15,-0.0731 -14.125,-0.30195 -15.5,-0.50846 z"
     id="path11" />
  <path
     style="fill:#000000"
     d="m 459.32956,223.75 c 0.30051,-1.2375 3.95579,-20.475 8.12284,-42.75 4.16706,-22.275 8.05388,-42.59175 8.63738,-45.14833 l 1.06092,-4.64834 4.24939,4.2494 c 8.12641,8.1264 25.17274,14.17348 46.72696,16.57609 13.63896,1.52032 32.80803,-0.0469 45.87295,-3.75053 7.88685,-2.23574 19.31957,-7.8679 24.13114,-11.88785 2.27513,-1.90082 4.25601,-3.32878 4.40196,-3.17324 0.56911,0.60649 -3.69671,23.23712 -4.93336,26.17208 -8.45257,20.06053 -51.08856,41.70446 -123.19343,62.53848 C 466.65479,224.16749 459.9685,226 459.54791,226 c -0.4206,0 -0.51886,-1.0125 -0.21835,-2.25 z"
     id="path10" />
  <path
     style="fill:#0b3f1c;fill-opacity:1"
     d="m 434.5,227.56851 c 5.5,-3.70089 11.35,-7.94423 13,-9.42964 1.65,-1.48542 3.96506,-3.50115 5.14459,-4.4794 l 2.14459,-1.77865 -1.64459,7.78593 c -1.86575,8.83295 -0.47106,7.84573 -16.1202,11.41061 -5.21158,1.18721 -10.16158,2.39739 -11,2.6893 -0.83841,0.2919 2.97561,-2.49726 8.47561,-6.19815 z"
     id="path9" />
  <path
     style="fill:#000000"
     d="m 80,292.59043 c 0,-2.47671 20.19435,-93.9056 39.57702,-179.18298 l 2.74852,-12.09256 29.08723,-0.6556 c 15.99798,-0.36058 45.22351,-0.65643 64.94564,-0.65745 l 35.85841,-0.002 -0.55747,2.25 C 248.84395,113.61326 228,209.37346 228,210.94458 228,212.98533 228.29503,213 269.34871,213 h 41.34871 l 6.63419,-30.25 c 3.6488,-16.6375 9.12791,-41.69853 12.17579,-55.69117 3.04789,-13.99265 5.79285,-25.69265 6.09991,-26 0.85675,-0.85757 89.41072,-1.35161 102.00568,-0.5691 l 11.11299,0.69045 -1.85381,8.65991 c -1.01959,4.76295 -5.22253,25.02769 -9.33987,45.03276 -5.63994,27.40304 -7.92332,36.71661 -9.25918,37.76679 -7.78152,6.11743 -28.78589,16.47649 -44.27312,21.8349 -28.61206,9.89945 -59.29217,16.49425 -133,28.58883 -91.21365,14.96707 -119.45394,21.95849 -148.5,36.76396 -5.5,2.80348 -12.8125,6.92513 -16.25,9.15921 -3.4375,2.23408 -6.25,3.85583 -6.25,3.60389 z"
     id="path8" />
  <path
     style="fill:url(#linearGradient30)"
     d="m 408.63629,353.06854 c 0.30812,-1.54059 1.30652,-6.79875 2.21868,-11.68481 l 1.65846,-8.88373 4.49328,-1.32071 C 432.59885,326.5963 468.73672,314.38013 481,309.54678 c 35.55066,-14.01164 70.81612,-33.77184 89.81058,-50.32333 7.90193,-6.88563 17.08246,-16.45786 19.63707,-20.47494 5.55529,-8.7356 0.32699,11.09404 -6.26234,23.75149 -6.28261,12.06826 -19.21743,25.27426 -34.68531,35.4125 -13.12597,8.60326 -43.37642,23.67596 -63.5,31.63974 -12.85929,5.08899 -58.75662,20.74454 -72.71196,24.80201 l -5.21196,1.51536 z"
     id="path7" />
  <path
     style="fill:url(#linearGradient12);fill-opacity:1"
     d="m 45.011869,358.89312 c 0.05102,-5.9887 7.677164,-25.15218 13.487383,-33.89199 5.637494,-8.48001 18.728138,-21.05611 29.000748,-27.86085 11.334275,-7.50801 30.09814,-16.45139 44.30166,-21.1154 27.08586,-8.8942 54.41271,-14.68639 125.01573,-26.49829 84.17756,-14.08292 122.49663,-23.57276 152.20441,-37.6939 14.95749,-7.10982 21.53602,-11.39051 29.04576,-18.90025 11.05242,-11.05242 14.12746,-23.01007 9.17604,-35.68216 l -2.05124,-5.24972 3.04381,1.74972 c 3.65029,2.09835 10.4841,10.40522 12.50403,15.19933 2.39741,5.69001 1.36808,17.29575 -2.1774,24.55039 -3.38505,6.92636 -11.27011,15.64186 -20.50781,22.66766 -14.5807,11.08946 -50.18736,25.83707 -82.05499,33.98563 -20.33575,5.19986 -38.57719,8.80329 -103,20.34672 -29.425,5.27244 -60.475,11.16213 -69,13.0882 -68.94224,15.57625 -109.420686,36.67769 -133.905247,69.80491 -2.802114,3.79122 -5.089412,6.26622 -5.082884,5.5 z"
     id="path6" />
  <path
     style="fill:url(#linearGradient18)"
     d="M 37.021642,407.73214 C 37.06049,403.72546 40.755701,388.65925 43.455464,381.5 58.636579,341.2426 93.016269,316.97459 163.76493,296.57569 199.1394,286.3762 213.92533,283.19769 299,267.50446 c 82.01753,-15.1293 103.51683,-19.66744 151.5,-31.97906 52.27035,-13.41164 85.91282,-25.04723 114.61444,-39.64058 18.17833,-9.24278 30.96813,-20.12673 37.94495,-32.29066 2.42666,-4.23082 2.92224,-4.67047 2.92422,-2.59416 0.004,4.52224 -3.90567,18.91183 -6.59101,24.2564 -3.23308,6.43474 -12.02987,17.38651 -17.68782,22.02087 -16.16267,13.23865 -47.4084,28.70051 -82.66996,40.90897 -28.23373,9.77526 -43.61733,13.83625 -185.42924,48.94995 -25.24193,6.2501 -44.78961,11.49798 -43.43929,11.66197 6.17632,0.75006 83.91192,-14.07923 127.5263,-24.32765 69.82322,-16.40694 109.99771,-28.72875 143.7845,-44.09979 25.19574,-11.46261 43.3745,-23.92728 53.47999,-36.66976 2.4514,-3.09107 4.6068,-5.47041 4.78979,-5.28742 0.77301,0.77301 -2.76669,14.69381 -5.21586,20.51278 -5.27773,12.53933 -12.20791,21.35331 -24.03101,30.56326 -24.73094,19.26488 -62.43439,33.72823 -127.5,48.91003 -46.8992,10.94302 -81.95564,17.05259 -167.30656,29.15784 -108.30523,15.36085 -132.81497,20.30969 -167.43658,33.80766 -27.966671,10.9034 -43.562307,20.79073 -62.00686,39.31113 -7.421936,7.45245 -9.245723,8.8469 -9.228358,7.0559 z"
     id="path5" />
  <path
     style="fill:#000000"
     d="m 262.24781,447.25776 c 6.54111,-30.85392 19.67816,-89.51707 20.15277,-89.99167 0.33736,-0.33736 16.47274,-3.4503 35.8564,-6.91763 19.38366,-3.46733 46.62343,-8.62128 60.53283,-11.45321 13.90939,-2.83193 25.50353,-4.93524 25.76475,-4.67402 0.26122,0.26122 -4.83595,26.7558 -11.32705,58.87686 L 381.42552,451.5 l -60.09319,0.25776 -60.09318,0.25776 z"
     id="path4" />
  <path
     style="fill:#000000"
     d="m 41,451.11001 c 0,-0.4895 1.947677,-3.527 4.328171,-6.75 20.386883,-27.60226 50.822498,-46.16078 98.073619,-59.8017 16.85101,-4.86471 48.37147,-12.11838 49.17372,-11.31613 0.28556,0.28555 -2.00697,12.16038 -5.09451,26.3885 -3.08753,14.22813 -6.80613,31.83182 -8.26354,39.11932 L 176.56762,452 H 108.78381 C 69.846954,452 41,451.62124 41,451.11001 Z"
     id="path3" />
  <path
     style="fill:url(#linearGradient25)"
     d="m 29.709572,448.75 c 1.012975,-8.29093 6.532792,-22.86461 11.602094,-30.6324 C 57.595659,393.16533 97.522938,370.21637 146.5,357.65861 c 28.96008,-7.42539 59.15744,-12.65125 130.5,-22.58391 47.24587,-6.57781 74.90613,-10.96171 114.137,-18.08971 41.62412,-7.56284 68.62859,-13.67112 97.71933,-22.10366 5.69599,-1.6511 10.54346,-2.81487 10.77217,-2.58616 0.58594,0.58594 -23.54553,10.64002 -39.84935,16.60274 -15.63903,5.71958 -41.71208,13.6312 -59.27915,17.98768 -24.72965,6.13273 -50.35349,10.97118 -132.5,25.01945 -59.38918,10.15643 -86.57174,15.40316 -109,21.03896 -40.19497,10.10024 -68.674924,22.33601 -90.5,38.88128 -9.499313,7.2013 -25.065104,22.88704 -32.176766,32.42472 -3.588384,4.8125 -6.661266,8.75 -6.828628,8.75 -0.167361,0 -0.07063,-1.9125 0.214966,-4.25 z"
     id="path2" />
  <path
     style="fill:#000000"
     d="m 463.5,454.92687 c -10.14934,-1.2032 -24.45469,-5.23312 -30.76156,-8.66574 -5.46437,-2.97409 -10.76142,-8.4455 -10.69392,-11.04593 0.0245,-0.94336 3.73699,-19.65285 8.25,-41.57665 L 438.5,353.7771 l 18,-6.25679 c 66.62533,-23.15892 104.47721,-43.31069 123.41473,-65.70415 2.7969,-3.30731 5.08527,-5.60718 5.08527,-5.11082 0,0.92475 -19.38888,96.30345 -27.60477,135.79466 -4.23693,20.36561 -4.81164,22.24954 -7.73609,25.35904 -6.67874,7.10134 -16.77219,11.50405 -34.65914,15.11815 -11.32277,2.28779 -39.61351,3.35881 -51.5,1.94968 z"
     id="path1" />
</svg>
