<svg xmlns="http://www.w3.org/2000/svg" width="1200" height="1200" viewBox="0 0 1200 1200" fill="none">
<defs>
  <linearGradient id="bg" x1="108" y1="118" x2="1040" y2="1064" gradientUnits="userSpaceOnUse">
    <stop stop-color="#0B1110"/>
    <stop offset="0.52" stop-color="#163B2A"/>
    <stop offset="1" stop-color="#B7FF66"/>
  </linearGradient>
  <radialGradient id="glow" cx="0" cy="0" r="1" gradientUnits="userSpaceOnUse" gradientTransform="translate(884 282) rotate(127.231) scale(618.542)">
    <stop stop-color="#FFFFFF" stop-opacity="0.7"/>
    <stop offset="0.42" stop-color="#D4FFB0" stop-opacity="0.38"/>
    <stop offset="1" stop-color="#D4FFB0" stop-opacity="0"/>
  </radialGradient>
  <filter id="blur" x="0" y="0" width="1200" height="1200" filterUnits="userSpaceOnUse">
    <feGaussianBlur stdDeviation="46"/>
  </filter>
</defs>
<rect width="1200" height="1200" rx="120" fill="url(#bg)"/>
<g filter="url(#blur)" opacity="0.65">
  <circle cx="917" cy="272" r="164" fill="url(#glow)"/>
  <circle cx="276" cy="972" r="126" fill="#76F9A2" fill-opacity="0.22"/>
</g>
<circle cx="610" cy="595" r="234" stroke="#D8FFC2" stroke-opacity="0.88" stroke-width="16"/>
<circle cx="610" cy="595" r="169" stroke="#D8FFC2" stroke-opacity="0.6" stroke-width="10" stroke-dasharray="12 18"/>
<path d="M252 580C335 430 493 332 676 332C783 332 882 365 966 422" stroke="#F2FFE8" stroke-opacity="0.56" stroke-width="18" stroke-linecap="round"/>
<path d="M241 649C305 840 486 976 697 976C776 976 850 957 916 923" stroke="#0F1C16" stroke-opacity="0.44" stroke-width="26" stroke-linecap="round"/>
<path d="M842 488L938 584L842 680" stroke="#F3FFED" stroke-width="22" stroke-linecap="round" stroke-linejoin="round"/>
<path d="M767 584H930" stroke="#F3FFED" stroke-width="22" stroke-linecap="round"/>
<text x="94" y="150" fill="#D8FFC2" font-family="Arial, Helvetica, sans-serif" font-size="48" font-weight="700" letter-spacing="6">SOFT INTERFACE</text>
<text x="92" y="896" fill="#F7FFF2" font-family="Arial, Helvetica, sans-serif" font-size="126" font-weight="900" letter-spacing="-4">VECTOR</text>
<text x="92" y="1004" fill="#F7FFF2" font-family="Arial, Helvetica, sans-serif" font-size="126" font-weight="900" letter-spacing="-4">HEART</text>
<text x="96" y="1094" fill="#0C1812" font-family="Arial, Helvetica, sans-serif" font-size="64" font-weight="800" letter-spacing="4">JOY CIRCUIT</text>
</svg>