<svg xmlns="http://www.w3.org/2000/svg" viewBox="0 0 1200 1200">
  <defs>
    <linearGradient id="bg" x1="0" y1="0" x2="1" y2="1">
      <stop offset="0%" stop-color="#06090a"/>
      <stop offset="55%" stop-color="#10251d"/>
      <stop offset="100%" stop-color="#2b4c3a"/>
    </linearGradient>
    <radialGradient id="glow" cx="52%" cy="38%" r="52%">
      <stop offset="0%" stop-color="#cfff9d" stop-opacity="0.92"/>
      <stop offset="25%" stop-color="#b7ff66" stop-opacity="0.42"/>
      <stop offset="60%" stop-color="#7adf8b" stop-opacity="0.14"/>
      <stop offset="100%" stop-color="#7adf8b" stop-opacity="0"/>
    </radialGradient>
    <filter id="blur"><feGaussianBlur stdDeviation="18"/></filter>
  </defs>
  <rect width="1200" height="1200" fill="url(#bg)"/>
  <circle cx="620" cy="435" r="290" fill="url(#glow)"/>
  <g opacity="0.95">
    <path d="M255 780c66-140 171-234 317-281 96-31 185-43 265-86 95-50 167-129 215-236-18 136-67 240-147 314-74 69-167 110-268 141-85 26-170 44-247 86-48 26-93 59-135 101z" fill="#0e1715" opacity="0.78"/>
    <path d="M208 866c79-93 170-155 273-189 109-37 223-46 332-97 97-45 176-121 236-227-19 130-67 233-145 307-75 71-171 117-275 149-99 30-201 43-292 93-45 25-88 56-129 92z" fill="#11201b" opacity="0.72"/>
  </g>
  <g filter="url(#blur)" opacity="0.42">
    <ellipse cx="604" cy="954" rx="338" ry="78" fill="#0a120f"/>
  </g>
  <circle cx="603" cy="469" r="164" fill="none" stroke="#dfffc9" stroke-opacity="0.24" stroke-width="2"/>
  <circle cx="603" cy="469" r="128" fill="none" stroke="#dfffc9" stroke-opacity="0.16" stroke-width="1.5"/>
  <g fill="#f7fff2">
    <text x="96" y="166" font-family="Inter, Arial, sans-serif" font-size="88" font-weight="800" letter-spacing="-2">THE UNSENT</text>
    <text x="96" y="252" font-family="Inter, Arial, sans-serif" font-size="88" font-weight="800" letter-spacing="-2">DRAFTS</text>
    <text x="98" y="936" font-family="Inter, Arial, sans-serif" font-size="116" font-weight="900" letter-spacing="-4">CTRL + ALT</text>
    <text x="98" y="1030" font-family="Inter, Arial, sans-serif" font-size="116" font-weight="900" letter-spacing="-4">+ DELETE</text>
  </g>
  <text x="101" y="1088" font-family="Space Mono, monospace" font-size="26" font-weight="700" letter-spacing="4" fill="#c4d7cf">ambient emo instrumental</text>
  <g opacity="0.7">
    <circle cx="974" cy="145" r="7" fill="#b7ff66"/>
    <circle cx="1018" cy="145" r="7" fill="#b7ff66" opacity="0.7"/>
    <circle cx="1062" cy="145" r="7" fill="#b7ff66" opacity="0.5"/>
  </g>
</svg>